<svg id="Layer_3" enable-background="new 0 0 64 64" height="512" viewBox="0 0 64 64" width="512" xmlns="http://www.w3.org/2000/svg"><g><circle cx="47" cy="47" fill="#2b74ca" r="15"/><path d="m32 47c0 2.549.64 4.947 1.762 7.049 1.796.606 3.717.951 5.725.951 9.658 0 17.487-7.611 17.487-17 0-.8-.077-1.58-.186-2.35-2.628-2.269-6.044-3.65-9.788-3.65-8.284 0-15 6.716-15 15z" fill="#3d98f7"/><path d="m30 22v-19c0-.552-.448-1-1-1h-24c-.552 0-1 .448-1 1v19" fill="#8892a0"/><g fill="#78b75b"><path d="m47 32c-1.387 0-2.725.203-4 .556v1.444c0 .552.448 1 1 1h1c.552 0 1 .448 1 1v1c0 .552.448 1 1 1h3c.552 0 1-.448 1-1s.448-1 1-1h1c.552 0 1 .448 1 1v2c0 .552.448 1 1 1h5.262c-2.516-4.756-7.507-8-13.262-8z"/><path d="m44.5 48h-6c-.828 0-1.5-.672-1.5-1.5s.672-1.5 1.5-1.5h1c.828 0 1.5-.672 1.5-1.5s-.672-1.5-1.5-1.5h-6.628c-.555 1.566-.872 3.244-.872 5 0 1.387.203 2.725.556 4h11.944c.828 0 1.5-.672 1.5-1.5s-.672-1.5-1.5-1.5z"/><path d="m61.95 48h-3.45c-.828 0-1.5.672-1.5 1.5s-.672 1.5-1.5 1.5h-2c-.828 0-1.5.672-1.5 1.5s.672 1.5 1.5 1.5h6.762c.958-1.812 1.545-3.844 1.688-6z"/><path d="m48 59h-1c-.552 0-1-.448-1-1s-.448-1-1-1h-9.158c2.746 3.062 6.721 5 11.158 5 .68 0 1.344-.061 2-.149v-1.851c0-.552-.448-1-1-1z"/></g><path d="m32 20v2c0 1.105-.895 2-2 2h-26c-1.105 0-2-.895-2-2v-2h10v1h10v-1z" fill="#a8b0bc"/><path d="m7 5h20v12h-20z" fill="#c7e2fc"/><g><path d="m15 53h-3c-.553 0-1-.448-1-1v-20h2v19h2z" fill="#2b74ca"/></g><g><path d="m53 25h-2v-12h-2v-2h3c.553 0 1 .448 1 1z" fill="#2b74ca"/></g><g><path d="m33 11h2v2h-2z" fill="#2b74ca"/></g><g><path d="m52 30c-1.654 0-3-1.346-3-3s1.346-3 3-3 3 1.346 3 3-1.346 3-3 3zm0-4c-.552 0-1 .449-1 1s.448 1 1 1 1-.449 1-1-.448-1-1-1z" fill="#2b74ca"/></g><g><path d="m12 33c-1.654 0-3-1.346-3-3s1.346-3 3-3 3 1.346 3 3-1.346 3-3 3zm0-4c-.552 0-1 .449-1 1s.448 1 1 1 1-.449 1-1-.448-1-1-1z" fill="#2b74ca"/></g><g><path d="m37 11h2v2h-2z" fill="#2b74ca"/></g><g><path d="m41 11h2v2h-2z" fill="#2b74ca"/></g><g><path d="m45 11h2v2h-2z" fill="#2b74ca"/></g><g><path d="m29 51h2v2h-2z" fill="#2b74ca"/></g><g><path d="m25 51h2v2h-2z" fill="#2b74ca"/></g><g><path d="m21 51h2v2h-2z" fill="#2b74ca"/></g><g><path d="m17 51h2v2h-2z" fill="#2b74ca"/></g><path d="m7 5v8.242c1.268.274 2.609.426 4 .426 7.034 0 12.84-3.767 13.834-8.668z" fill="#ebf7fe"/><path d="m47 31c-8.822 0-16 7.178-16 16s7.178 16 16 16c5.907 0 11.063-3.226 13.835-8h.165v-.271c1.271-2.293 2-4.926 2-7.729 0-8.822-7.178-16-16-16zm11.473 8h-3.473v-2c0-1.103-.897-2-2-2h-1c-1.103 0-2 .897-2 2h-3v-1c0-1.103-.897-2-2-2h-1v-.668c.968-.212 1.97-.332 3-.332 4.745 0 8.94 2.378 11.473 6zm-24.883 4h5.91c.275 0 .5.224.5.5s-.225.5-.5.5h-1c-1.379 0-2.5 1.122-2.5 2.5s1.121 2.5 2.5 2.5h6c.275 0 .5.224.5.5s-.225.5-.5.5h-11.168c-.212-.968-.332-1.97-.332-3 0-1.39.21-2.731.59-4zm4.778 15h6.632c0 1.103.897 2 2 2h1v.949c-.332.024-.662.051-1 .051-3.257 0-6.251-1.128-8.632-3zm21.262-5h-6.13c-.275 0-.5-.224-.5-.5s.225-.5.5-.5h2c1.379 0 2.5-1.122 2.5-2.5 0-.276.225-.5.5-.5h2.34c-.203 1.413-.616 2.755-1.21 4zm-1.13-6c-1.379 0-2.5 1.122-2.5 2.5 0 .276-.225.5-.5.5h-2c-1.379 0-2.5 1.122-2.5 2.5s1.121 2.5 2.5 2.5h4.973c-1.983 2.835-4.984 4.903-8.473 5.668v-.668c0-1.103-.897-2-2-2h-1c0-1.103-.897-2-2-2h-8.708c-.995-1.182-1.789-2.533-2.353-4h10.561c1.379 0 2.5-1.122 2.5-2.5s-1.121-2.5-2.5-2.5h-6c-.275 0-.5-.224-.5-.5s.225-.5.5-.5h1c1.379 0 2.5-1.122 2.5-2.5s-1.121-2.5-2.5-2.5h-5.13c1.54-3.227 4.271-5.771 7.63-7.061v.061c0 1.103.897 2 2 2h1v1c0 1.103.897 2 2 2h3c1.103 0 2-.897 2-2h1v2c0 1.103.897 2 2 2h4.63c.869 1.822 1.37 3.851 1.37 6z"/><path d="m4 25h26c1.654 0 3-1.346 3-3v-2c0-.552-.447-1-1-1h-1v-16c0-1.103-.897-2-2-2h-24c-1.103 0-2 .897-2 2v16h-1c-.553 0-1 .448-1 1v2c0 1.654 1.346 3 3 3zm1-22h24v16h-7c-.553 0-1 .448-1 1h-8c0-.552-.447-1-1-1h-7zm-2 18h8c0 .552.447 1 1 1h10c.553 0 1-.448 1-1h8v1c0 .551-.448 1-1 1h-26c-.552 0-1-.449-1-1z"/><path d="m28 17v-12c0-.552-.447-1-1-1h-20c-.553 0-1 .448-1 1v12c0 .552.447 1 1 1h20c.553 0 1-.448 1-1zm-2-1h-18v-10h18z"/><path d="m33 11h2v2h-2z"/><path d="m49 27c0 1.654 1.346 3 3 3s3-1.346 3-3c0-1.302-.839-2.402-2-2.816v-12.184c0-.552-.447-1-1-1h-3v2h2v11.184c-1.161.414-2 1.514-2 2.816zm3 1c-.552 0-1-.449-1-1s.448-1 1-1 1 .449 1 1-.448 1-1 1z"/><path d="m15 30c0-1.654-1.346-3-3-3s-3 1.346-3 3c0 1.302.839 2.402 2 2.816v19.184c0 .552.447 1 1 1h3v-2h-2v-18.184c1.161-.414 2-1.514 2-2.816zm-3-1c.552 0 1 .449 1 1s-.448 1-1 1-1-.449-1-1 .448-1 1-1z"/><path d="m37 11h2v2h-2z"/><path d="m41 11h2v2h-2z"/><path d="m45 11h2v2h-2z"/><path d="m29 51h2v2h-2z"/><path d="m25 51h2v2h-2z"/><path d="m21 51h2v2h-2z"/><path d="m17 51h2v2h-2z"/></g></svg>